# xmcd
#
# Track frame offsets: 
#        150
#        3865
#        21091
#        36165
#        52960
#        70710
#        89023
#        103855
#        118482
#        133314
#        149296
#        162368
#        180851
#        198608
#        224588
#
# Disc length: 3394 seconds
#
# Revision: 2
# Processed by: cddbd v1.5.2PL0 Copyright (c) Steve Scherf et al.
# Submitted via: ExactAudioCopy v0.99pb5
#
DISCID=dd0d400f
DTITLE=Fredrika Stahl - Sweep me away
DYEAR=2010
DGENRE=Pop
TTITLE0=Intro
TTITLE1=Sweep me away
TTITLE2=Fast moving train
TTITLE3=Rocket trip to mars
TTITLE4=Altered lens
TTITLE5=M.O.S.W.
TTITLE6=A drop in a sea
TTITLE7=She and I
TTITLE8=Flying on boy
TTITLE9=What if?
TTITLE10=In my head
TTITLE11=Fading away
TTITLE12=Song of july
TTITLE13=So high
TTITLE14=Daten-CD
EXTD=
EXTT0=
EXTT1=
EXTT2=
EXTT3=
EXTT4=
EXTT5=
EXTT6=
EXTT7=
EXTT8=
EXTT9=
EXTT10=
EXTT11=
EXTT12=
EXTT13=
EXTT14=
PLAYORDER=
